<svg xmlns="http://www.w3.org/2000/svg" width="1520" height="585" viewBox="0 0 1520 585">
  <g id="Group_7" data-name="Group 7" transform="translate(-200 -1631)">
    <g id="Rectangle_3" data-name="Rectangle 3" transform="translate(200 1631)" fill="#50abb3" stroke="#707070" stroke-width="1">
      <rect width="1520" height="585" stroke="none"/>
      <rect x="0.5" y="0.5" width="1519" height="584" fill="none"/>
    </g>
    <text id="SIXTH_COLLEGE_MARKETING_GRAPHICS" data-name="SIXTH COLLEGE
MARKETING
GRAPHICS" transform="translate(274 1853)" fill="#fff" font-size="85" font-family="Jost" font-weight="700"><tspan x="0" y="0">SIXTH COLLEGE</tspan><tspan x="0" y="100">MARKETING</tspan><tspan x="0" y="200">GRAPHICS</tspan></text>
    <text id="GRAPHICS" transform="translate(274 1747)" fill="#fff" font-size="20" font-family="Jost" font-weight="700" letter-spacing="0.5em"><tspan x="0" y="0">GRAPHICS</tspan></text>
    <g id="Rectangle_4" data-name="Rectangle 4" transform="translate(1017 1739)" fill="#fff" stroke="#707070" stroke-width="1">
      <path d="M40,0H567a40,40,0,0,1,40,40V477a0,0,0,0,1,0,0H0a0,0,0,0,1,0,0V40A40,40,0,0,1,40,0Z" stroke="none"/>
      <path d="M40,.5H567A39.5,39.5,0,0,1,606.5,40V476.5a0,0,0,0,1,0,0H.5a0,0,0,0,1,0,0V40A39.5,39.5,0,0,1,40,.5Z" fill="none"/>
    </g>
  </g>
</svg>
